<?xml version="1.0" standalone="no"?>
<!DOCTYPE svg PUBLIC "-//W3C//DTD SVG 20010904//EN"
 "http://www.w3.org/TR/2001/REC-SVG-20010904/DTD/svg10.dtd">
<svg version="1.0" xmlns="http://www.w3.org/2000/svg"
 width="64.000000pt" height="64.000000pt" viewBox="0 0 64.000000 64.000000"
 preserveAspectRatio="xMidYMid meet">

<g transform="translate(0.000000,64.000000) scale(0.100000,-0.100000)"
fill="#000000" stroke="none">
<path d="M191 565 c-147 -84 -145 -82 -149 -230 -5 -169 -2 -175 136 -254 75
-42 118 -61 142 -61 24 0 68 19 144 62 137 79 139 83 134 254 -3 113 -5 124
-27 148 -40 42 -214 136 -253 136 -21 0 -66 -19 -127 -55z m58 -107 c5 -13 13
-54 19 -92 7 -46 21 -85 42 -119 l31 -50 -43 7 c-28 4 -51 15 -65 32 -20 22
-23 36 -23 119 0 95 5 125 21 125 5 0 13 -10 18 -22z m191 -207 c57 -11 45
-35 -19 -39 -44 -3 -58 1 -77 19 -13 12 -24 26 -24 31 0 8 42 4 120 -11z"/>
</g>
</svg>
