<svg width="167" height="34" viewBox="0 0 167 34" fill="none" xmlns="http://www.w3.org/2000/svg">
<path d="M14.2543 1.58524C15.9533 0.60429 18.0467 0.60429 19.7457 1.58524L28.9767 6.91476C30.6758 7.89571 31.7224 9.70858 31.7224 11.6705V22.3295C31.7224 24.2914 30.6758 26.1043 28.9767 27.0852L19.7457 32.4148C18.0467 33.3957 15.9533 33.3957 14.2543 32.4148L5.02329 27.0852C3.32423 26.1043 2.27757 24.2914 2.27757 22.3295V11.6705C2.27757 9.70858 3.32423 7.89571 5.02329 6.91476L14.2543 1.58524Z" fill="black"/>
<path d="M11.1923 19.0767C10.9774 17.4425 10.9931 14.633 11.2367 10.7308C11.2903 9.83651 11.3094 9.68485 11.3992 9.43653C11.5701 8.94556 11.8234 8.68257 12.2164 8.57823C12.5741 8.48294 12.8578 8.59097 13.1302 8.92035C13.3887 9.2362 13.4904 9.7118 13.7065 11.6563C13.8929 13.3525 13.9492 13.7578 14.1577 15.0216C14.2746 15.7425 14.7414 17.5202 14.955 18.0729C15.7742 20.1731 16.8566 21.8098 18.2378 23.0285C18.3741 23.1471 18.4008 23.1846 18.3518 23.1801C18.3141 23.1795 18.1025 23.1793 17.8772 23.1791C15.8751 23.171 14.743 23.042 13.8181 22.7232C12.8185 22.3792 12.0847 21.728 11.674 20.8199C11.4968 20.4354 11.2579 19.5581 11.1923 19.0767Z" fill="white"/>
<path d="M16.5664 19.4201C16.5761 19.4176 16.6973 19.4513 16.8355 19.4977C17.4245 19.6912 18.2114 19.8714 19.1689 20.0385C20.2581 20.2263 20.7596 20.2921 22.8392 20.5089C24.4599 20.6797 24.9736 20.7799 25.2644 20.9816C25.6937 21.2844 25.824 21.7253 25.6166 22.154C25.452 22.483 25.0025 22.7793 24.5379 22.8576C24.2728 22.9018 22.3334 23.0313 20.9275 23.0988L19.8823 23.1488L19.6843 23.0153C18.6399 22.3245 17.6049 21.2046 16.8667 19.9778C16.5871 19.5138 16.5408 19.4267 16.5664 19.4201Z" fill="#FFFF00"/>
<path d="M43.4276 21.4418H47.7688V24H40.1137V10.3952H43.4276V21.4418ZM59.6402 18.4186C59.6402 18.7286 59.6208 19.0516 59.5821 19.3876H52.082C52.1337 20.0594 52.3469 20.5762 52.7216 20.938C53.1092 21.2868 53.5808 21.4612 54.1363 21.4612C54.9632 21.4612 55.5381 21.1124 55.8611 20.4147H59.3883C59.2074 21.1253 58.878 21.7648 58.3999 22.3333C57.9348 22.9018 57.3469 23.3475 56.6363 23.6705C55.9257 23.9935 55.1312 24.155 54.2526 24.155C53.1932 24.155 52.25 23.9289 51.4231 23.4767C50.5962 23.0245 49.9502 22.3785 49.4851 21.5387C49.02 20.6989 48.7874 19.717 48.7874 18.593C48.7874 17.4689 49.0135 16.487 49.4657 15.6472C49.9309 14.8074 50.5769 14.1614 51.4037 13.7092C52.2306 13.257 53.1802 13.0309 54.2526 13.0309C55.2991 13.0309 56.2294 13.2506 57.0433 13.6898C57.8573 14.1291 58.4904 14.7557 58.9426 15.5697C59.4077 16.3837 59.6402 17.3333 59.6402 18.4186ZM56.2487 17.5465C56.2487 16.978 56.0549 16.5258 55.6673 16.1899C55.2797 15.8539 54.7952 15.686 54.2138 15.686C53.6583 15.686 53.1867 15.8475 52.7991 16.1705C52.4244 16.4935 52.1919 16.9521 52.1014 17.5465H56.2487ZM67.5126 21.1899V24H65.8265C64.625 24 63.6883 23.7093 63.0164 23.1279C62.3446 22.5336 62.0087 21.571 62.0087 20.2403V15.9379H60.6908V13.186H62.0087V10.5503H65.3227V13.186H67.4932V15.9379H65.3227V20.279C65.3227 20.602 65.4002 20.8346 65.5552 20.9767C65.7103 21.1188 65.9687 21.1899 66.3304 21.1899H67.5126ZM75.4826 21.1899V24H73.7966C72.595 24 71.6583 23.7093 70.9865 23.1279C70.3146 22.5336 69.9787 21.571 69.9787 20.2403V15.9379H68.6609V13.186H69.9787V10.5503H73.2927V13.186H75.4632V15.9379H73.2927V20.279C73.2927 20.602 73.3702 20.8346 73.5252 20.9767C73.6803 21.1188 73.9387 21.1899 74.3004 21.1899H75.4826ZM87.6193 18.4186C87.6193 18.7286 87.6 19.0516 87.5612 19.3876H80.0611C80.1128 20.0594 80.326 20.5762 80.7007 20.938C81.0883 21.2868 81.5599 21.4612 82.1154 21.4612C82.9423 21.4612 83.5172 21.1124 83.8402 20.4147H87.3674C87.1865 21.1253 86.8571 21.7648 86.379 22.3333C85.9139 22.9018 85.326 23.3475 84.6154 23.6705C83.9048 23.9935 83.1103 24.155 82.2317 24.155C81.1723 24.155 80.2291 23.9289 79.4022 23.4767C78.5753 23.0245 77.9293 22.3785 77.4642 21.5387C76.9991 20.6989 76.7665 19.717 76.7665 18.593C76.7665 17.4689 76.9926 16.487 77.4448 15.6472C77.91 14.8074 78.556 14.1614 79.3828 13.7092C80.2097 13.257 81.1593 13.0309 82.2317 13.0309C83.2782 13.0309 84.2085 13.2506 85.0224 13.6898C85.8364 14.1291 86.4695 14.7557 86.9217 15.5697C87.3868 16.3837 87.6193 17.3333 87.6193 18.4186ZM84.2278 17.5465C84.2278 16.978 84.034 16.5258 83.6464 16.1899C83.2588 15.8539 82.7743 15.686 82.1929 15.686C81.6374 15.686 81.1658 15.8475 80.7782 16.1705C80.4035 16.4935 80.171 16.9521 80.0805 17.5465H84.2278ZM92.7785 14.9883C93.1661 14.394 93.6506 13.9289 94.232 13.5929C94.8134 13.2441 95.4594 13.0697 96.17 13.0697V16.5775H95.2592C94.4323 16.5775 93.8121 16.7583 93.3987 17.1201C92.9852 17.4689 92.7785 18.0891 92.7785 18.9806V24H89.4645V13.186H92.7785V14.9883ZM106.087 17.0232C106.876 17.1912 107.509 17.5852 107.987 18.2054C108.465 18.8126 108.704 19.5103 108.704 20.2984C108.704 21.4354 108.303 22.3398 107.502 23.0116C106.714 23.6705 105.609 24 104.188 24H97.8509V10.3952H103.975C105.357 10.3952 106.436 10.7118 107.211 11.3449C108 11.9779 108.394 12.8371 108.394 13.9224C108.394 14.7234 108.18 15.3888 107.754 15.9185C107.341 16.4483 106.785 16.8165 106.087 17.0232ZM101.165 15.8992H103.335C103.878 15.8992 104.292 15.7829 104.576 15.5503C104.873 15.3048 105.022 14.9495 105.022 14.4844C105.022 14.0193 104.873 13.664 104.576 13.4185C104.292 13.173 103.878 13.0503 103.335 13.0503H101.165V15.8992ZM103.607 21.3256C104.162 21.3256 104.589 21.2028 104.886 20.9573C105.196 20.6989 105.351 20.3307 105.351 19.8527C105.351 19.3746 105.189 19 104.866 18.7286C104.556 18.4573 104.124 18.3217 103.568 18.3217H101.165V21.3256H103.607ZM121.401 13.186V24H118.087V22.5271C117.751 23.0052 117.293 23.3928 116.711 23.6899C116.143 23.9742 115.51 24.1163 114.812 24.1163C113.985 24.1163 113.255 23.9354 112.622 23.5736C111.989 23.199 111.498 22.6628 111.149 21.9651C110.8 21.2674 110.626 20.447 110.626 19.5038V13.186H113.92V19.0581C113.92 19.7816 114.108 20.3436 114.482 20.7442C114.857 21.1447 115.361 21.3449 115.994 21.3449C116.64 21.3449 117.15 21.1447 117.525 20.7442C117.9 20.3436 118.087 19.7816 118.087 19.0581V13.186H121.401ZM123.219 18.593C123.219 17.4689 123.446 16.487 123.898 15.6472C124.363 14.8074 125.002 14.1614 125.816 13.7092C126.643 13.257 127.586 13.0309 128.646 13.0309C130.002 13.0309 131.133 13.3862 132.037 14.0968C132.955 14.8074 133.555 15.8087 133.84 17.1007H130.313C130.015 16.2738 129.44 15.8604 128.588 15.8604C127.981 15.8604 127.496 16.0994 127.134 16.5775C126.772 17.0426 126.592 17.7144 126.592 18.593C126.592 19.4715 126.772 20.1498 127.134 20.6279C127.496 21.093 127.981 21.3256 128.588 21.3256C129.44 21.3256 130.015 20.9121 130.313 20.0852H133.84C133.555 21.3514 132.955 22.3462 132.037 23.0698C131.12 23.7933 129.99 24.155 128.646 24.155C127.586 24.155 126.643 23.9289 125.816 23.4767C125.002 23.0245 124.363 22.3785 123.898 21.5387C123.446 20.6989 123.219 19.717 123.219 18.593ZM142.318 24L139.023 19.4651V24H135.709V9.6588H139.023V17.5852L142.298 13.186H146.388L141.892 18.6124L146.426 24H142.318ZM157.98 18.4186C157.98 18.7286 157.961 19.0516 157.922 19.3876H150.422C150.474 20.0594 150.687 20.5762 151.061 20.938C151.449 21.2868 151.921 21.4612 152.476 21.4612C153.303 21.4612 153.878 21.1124 154.201 20.4147H157.728C157.547 21.1253 157.218 21.7648 156.74 22.3333C156.275 22.9018 155.687 23.3475 154.976 23.6705C154.266 23.9935 153.471 24.155 152.592 24.155C151.533 24.155 150.59 23.9289 149.763 23.4767C148.936 23.0245 148.29 22.3785 147.825 21.5387C147.36 20.6989 147.127 19.717 147.127 18.593C147.127 17.4689 147.353 16.487 147.806 15.6472C148.271 14.8074 148.917 14.1614 149.744 13.7092C150.57 13.257 151.52 13.0309 152.592 13.0309C153.639 13.0309 154.569 13.2506 155.383 13.6898C156.197 14.1291 156.83 14.7557 157.282 15.5697C157.748 16.3837 157.98 17.3333 157.98 18.4186ZM154.589 17.5465C154.589 16.978 154.395 16.5258 154.007 16.1899C153.62 15.8539 153.135 15.686 152.554 15.686C151.998 15.686 151.527 15.8475 151.139 16.1705C150.764 16.4935 150.532 16.9521 150.441 17.5465H154.589ZM165.852 21.1899V24H164.166C162.965 24 162.028 23.7093 161.356 23.1279C160.684 22.5336 160.349 21.571 160.349 20.2403V15.9379H159.031V13.186H160.349V10.5503H163.663V13.186H165.833V15.9379H163.663V20.279C163.663 20.602 163.74 20.8346 163.895 20.9767C164.05 21.1188 164.309 21.1899 164.67 21.1899H165.852Z" fill="black"/>
</svg>
